HIERARCHY
ROOT Hips
{
	OFFSET 0.000000 0.000000 0.000000
	CHANNELS 6 Xposition Yposition Zposition Zrotation Yrotation Xrotation 
	JOINT LHipJoint
	{
		OFFSET 0.000000 0.000000 0.000000
		CHANNELS 3 Zrotation Yrotation Xrotation
		JOINT LeftUpLeg
		{
			OFFSET 1.363060 -1.794630 0.839290
			CHANNELS 3 Zrotation Yrotation Xrotation
			JOINT LeftLeg
			{
				OFFSET 2.448110 -6.726130 0.000000
				CHANNELS 3 Zrotation Yrotation Xrotation
				JOINT LeftFoot
				{
					OFFSET 2.562200 -7.039590 0.000000
					CHANNELS 3 Zrotation Yrotation Xrotation
					JOINT LeftToeBase
					{
						OFFSET 0.157640 -0.433110 2.322550
						CHANNELS 3 Zrotation Yrotation Xrotation
						End Site
						{
							OFFSET 0.000000 0.000000 0.000000
						}
					}
				}
			}
		}
	}
	JOINT RHipJoint
	{
		OFFSET 0.000000 0.000000 0.000000
		CHANNELS 3 Zrotation Yrotation Xrotation
		JOINT RightUpLeg
		{
			OFFSET -1.305520 -1.794630 0.839290
			CHANNELS 3 Zrotation Yrotation Xrotation
			JOINT RightLeg
			{
				OFFSET -2.542530 -6.985550 0.000000
				CHANNELS 3 Zrotation Yrotation Xrotation
				JOINT RightFoot
				{
					OFFSET -2.568260 -7.056230 0.000000
					CHANNELS 3 Zrotation Yrotation Xrotation
					JOINT RightToeBase
					{
						OFFSET -0.164730 -0.452590 2.363150
						CHANNELS 3 Zrotation Yrotation Xrotation
						End Site
						{
							OFFSET 0.000000 0.000000 0.000000
						}
					}
				}
			}
		}
	}
	JOINT LowerBack
	{
		OFFSET 0.000000 0.000000 0.000000
		CHANNELS 3 Zrotation Yrotation Xrotation
		JOINT Spine
		{
			OFFSET 0.028270 2.035590 -0.193380
			CHANNELS 3 Zrotation Yrotation Xrotation
			JOINT Spine1
			{
				OFFSET 0.056720 2.048850 -0.042750
				CHANNELS 3 Zrotation Yrotation Xrotation
				JOINT Neck
				{
					OFFSET 0.000000 0.000000 0.000000
					CHANNELS 3 Zrotation Yrotation Xrotation
					JOINT Neck1
					{
						OFFSET -0.054170 1.746240 0.172020
						CHANNELS 3 Zrotation Yrotation Xrotation
						JOINT Head
						{
							OFFSET 0.104070 1.761360 -0.123970
							CHANNELS 3 Zrotation Yrotation Xrotation
							End Site
							{
								OFFSET 0.000000 0.000000 0.000000
							}
						}
					}
				}
				JOINT LeftShoulder
				{
					OFFSET 0.000000 0.000000 0.000000
					CHANNELS 3 Zrotation Yrotation Xrotation
					JOINT LeftArm
					{
						OFFSET 3.362410 1.200890 -0.311210
						CHANNELS 3 Zrotation Yrotation Xrotation
						JOINT LeftForeArm
						{
							OFFSET 4.983000 -0.000000 -0.000000
							CHANNELS 3 Zrotation Yrotation Xrotation
							JOINT LeftHand
							{
								OFFSET 3.483560 -0.000000 -0.000000
								CHANNELS 3 Zrotation Yrotation Xrotation
								JOINT LeftFingerBase
								{
									OFFSET 0.000000 0.000000 0.000000
									CHANNELS 3 Zrotation Yrotation Xrotation
									JOINT LeftHandIndex1
									{
										OFFSET 0.715260 -0.000000 -0.000000
										CHANNELS 3 Zrotation Yrotation Xrotation
										End Site
										{
											OFFSET 0.000000 0.000000 0.000000
										}
									}
								}
								JOINT LThumb
								{
									OFFSET 0.000000 0.000000 0.000000
									CHANNELS 3 Zrotation Yrotation Xrotation
									End Site
									{
										OFFSET 0.000000 0.000000 0.000000
									}
								}
							}
						}
					}
				}
				JOINT RightShoulder
				{
					OFFSET 0.000000 0.000000 0.000000
					CHANNELS 3 Zrotation Yrotation Xrotation
					JOINT RightArm
					{
						OFFSET -3.136600 1.374050 -0.404650
						CHANNELS 3 Zrotation Yrotation Xrotation
						JOINT RightForeArm
						{
							OFFSET -5.241900 -0.000000 -0.000000
							CHANNELS 3 Zrotation Yrotation Xrotation
							JOINT RightHand
							{
								OFFSET -3.444170 -0.000000 -0.000000
								CHANNELS 3 Zrotation Yrotation Xrotation
								JOINT RightFingerBase
								{
									OFFSET 0.000000 0.000000 0.000000
									CHANNELS 3 Zrotation Yrotation Xrotation
									JOINT RightHandIndex1
									{
										OFFSET -0.622530 -0.000000 -0.000000
										CHANNELS 3 Zrotation Yrotation Xrotation
										End Site
										{
											OFFSET 0.000000 0.000000 0.000000
										}
									}
								}
								JOINT RThumb
								{
									OFFSET 0.000000 0.000000 0.000000
									CHANNELS 3 Zrotation Yrotation Xrotation
									End Site
									{
										OFFSET 0.000000 0.000000 0.000000
									}
								}
							}
						}
					}
				}
			}
		}
	}
}
MOTION
Frames: 6
Frame Time: 0.008333
11.080845 18.019219 -11.981246 -2.309507 0.206588 5.627270 2.020303 2.766689 1.740084 -18.455830 -14.876170 -11.337851 -1.781330 8.839671 25.040428 -2.195433 9.603437 -7.462009 3.232600 -11.062400 -32.490600 -5.790692 -3.215685 0.883180 30.480654 15.870480 -4.614385 2.550062 -6.461649 20.160398 4.513919 -21.551411 -13.977267 -0.080900 1.834400 -5.048300 2.834065 0.273775 6.294337 3.585653 0.369123 11.781613 -4.785049 0.293225 -15.186326 -9.395355 -3.096953 -16.089910 14.822735 -4.445537 5.099961 2.701000 -2.153600 2.696200 -0.880353 -10.280861 1.358462 -87.824323 10.558362 16.581178 24.758935 -24.144047 -5.947541 1.339271 0.812258 9.777701 14.852448 -36.517232 -8.496000 -7.125000 0.000000 0.000000 -10.813900 -8.026300 12.426400 -0.408702 9.507772 2.344599 85.071176 -11.600218 36.341279 -24.327805 27.020654 -6.716649 0.229477 -0.987254 25.366383 -26.366718 -52.816817 21.764900 7.125000 0.000000 0.000000 53.489100 -81.400500 -46.225600 
11.078076 18.009530 -11.985283 -2.210580 0.149534 5.779639 2.020363 2.711132 1.721875 -18.508670 -14.604280 -11.727007 -1.727468 8.946127 25.300054 -2.082892 9.279794 -7.437849 3.201900 -11.015000 -32.330300 -5.803617 -3.163914 0.874966 30.319183 15.748724 -5.239676 2.447729 -6.721796 20.791459 4.398047 -21.172559 -14.156178 -0.077600 1.797500 -4.946500 2.802889 0.290178 6.365141 3.398240 0.395497 11.923756 -4.719773 0.314831 -15.233675 -9.084489 -3.143394 -16.268031 14.502802 -4.496990 4.927160 2.562800 -2.193600 2.652100 -0.848185 -10.257202 1.366925 -87.701612 10.984910 16.531235 24.890861 -24.264400 -5.990407 1.338294 0.810936 9.724558 14.834798 -36.242286 -8.431700 -7.125000 0.000000 0.000000 -10.788300 -7.749200 12.351400 -0.421983 9.504827 2.335514 84.942917 -11.650780 36.381966 -24.200413 26.869433 -6.651734 0.235184 -0.996269 25.385425 -26.165480 -52.474483 21.507800 7.125000 0.000000 0.000000 51.479400 -81.177300 -44.204200 
11.074847 17.998918 -11.990359 -2.182093 0.112316 5.919842 2.042467 2.653141 1.702467 -18.509477 -14.395885 -12.166392 -1.659487 9.083360 25.641073 -2.019841 9.109864 -7.495058 3.321400 -11.198000 -32.950500 -5.806565 -3.116575 0.887599 30.229640 15.689910 -5.793348 2.367774 -6.932710 21.283738 4.328383 -20.946938 -14.235568 -0.082000 1.847300 -5.083900 2.736518 0.265141 6.369877 3.390931 0.345005 12.235321 -4.662835 0.310311 -15.244597 -8.929678 -3.114781 -16.470219 14.273753 -4.438559 4.623573 2.478200 -2.188600 2.579800 -0.809582 -10.251434 1.366678 -87.578706 11.392239 16.541989 25.090374 -24.455900 -6.057139 1.329114 0.812969 9.564840 14.921303 -35.775932 -8.400000 -7.125000 0.000000 0.000000 -10.681400 -7.302700 12.153000 -0.464977 9.492687 2.311520 84.750708 -11.539301 36.509943 -24.063213 26.719262 -6.596637 0.249473 -1.001646 25.359022 -25.468996 -52.651021 20.981400 7.125000 0.000000 0.000000 52.908100 -80.952000 -45.298400 
11.070694 17.985307 -11.994165 -2.223991 0.127159 6.011462 2.058749 2.604514 1.681834 -18.428593 -14.220228 -12.566204 -1.592171 9.217809 25.975864 -1.965278 8.968248 -7.590715 3.446700 -11.385300 -33.590600 -5.826250 -3.073077 0.890852 30.268545 15.665643 -6.204278 2.299584 -7.115434 21.723415 4.263073 -20.776832 -14.435255 -0.085800 1.889300 -5.199800 2.827039 0.247613 6.429053 3.281464 0.335675 12.445794 -4.686949 0.304979 -15.274664 -8.875895 -3.087669 -16.497219 14.243298 -4.405196 4.398862 2.463100 -2.189000 2.514800 -0.764994 -10.255603 1.369825 -87.421582 11.697372 16.362205 25.122189 -24.472901 -6.062002 1.327683 0.818106 9.633470 15.227413 -35.642308 -8.569800 -7.125000 0.000000 0.000000 -10.502400 -7.236800 11.932200 -0.478552 9.469342 2.288475 84.766733 -11.574597 36.346506 -23.974649 26.625079 -6.564454 0.271872 -1.002357 25.262628 -24.372650 -52.932933 20.152200 7.125000 0.000000 0.000000 55.144400 -80.599200 -47.006800 
11.064696 17.974119 -11.996703 -2.278134 0.198076 6.134330 2.083737 2.551451 1.636996 -18.330109 -14.096214 -12.955344 -1.521274 9.359124 26.324698 -1.907088 8.816561 -7.676211 3.511000 -11.479500 -33.914700 -5.844765 -3.029684 0.874920 30.337871 15.627276 -6.568982 2.246293 -7.267310 22.078393 4.207687 -20.644276 -14.624884 -0.086100 1.892900 -5.209700 2.889649 0.252939 6.677450 3.227527 0.366731 12.386103 -4.724084 0.311976 -15.409542 -8.917999 -3.090011 -16.550498 14.362273 -4.411738 4.357551 2.503900 -2.193200 2.507000 -0.755651 -10.243164 1.378250 -87.339700 11.878648 15.868034 24.938338 -24.260084 -5.970372 1.348762 0.811720 10.071058 15.129124 -35.596390 -8.492100 -7.125000 0.000000 0.000000 -10.557100 -7.178800 11.987000 -0.468140 9.449162 2.295572 84.744032 -11.815245 36.214869 -23.947084 26.587632 -6.550227 0.288267 -1.005065 25.083593 -23.621209 -52.884052 19.523400 7.125000 0.000000 0.000000 55.268800 -80.267300 -46.814100 
11.058467 17.966275 -12.000625 -2.434593 0.312434 6.296563 2.127373 2.495959 1.587510 -18.115231 -14.062233 -13.350086 -1.448100 9.491372 26.654927 -1.805151 8.526522 -7.721532 3.441200 -11.377200 -33.562700 -5.852221 -2.984600 0.864348 30.491992 15.546652 -7.011267 2.198272 -7.419181 22.401359 4.170967 -20.561125 -14.669395 -0.081800 1.845100 -5.077600 2.958000 0.240506 6.953768 3.384949 0.362559 12.375373 -4.815355 0.305049 -15.553484 -9.222412 -2.994134 -16.615649 14.772932 -4.280310 4.101444 2.672100 -2.142100 2.450000 -0.750548 -10.254472 1.380415 -87.326648 12.041556 15.337679 24.860213 -24.174728 -5.911878 1.379579 0.786742 10.475296 14.253684 -35.263949 -7.864600 -7.125000 0.000000 0.000000 -10.994000 -6.672200 12.415500 -0.474788 9.403089 2.300969 84.600345 -12.063759 36.217377 -24.012930 26.652046 -6.579482 0.287582 -1.007172 24.976795 -23.604017 -52.928116 19.518200 7.125000 0.000000 0.000000 55.500500 -80.274800 -47.030800 
